<svg xmlns="http://www.w3.org/2000/svg" viewBox="0 0 64 64">
  <rect width="64" height="64" rx="14" fill="#0a0c14"/>
  <circle cx="32" cy="19" r="14" fill="#f0a14a" opacity="0.16"/>
  <circle cx="32" cy="19" r="8" fill="#f0a14a" opacity="0.18"/>
  <path d="M32 8 C36.5 14.5 39 18 39 22.5 a7 7 0 0 1 -14 0 C25 18 27.5 14.5 32 8 Z" fill="#f0a14a"/>
  <path d="M32 13 C34.4 16.8 35.7 18.9 35.7 21.6 a3.7 3.7 0 0 1 -7.4 0 C28.3 18.9 29.6 16.8 32 13 Z" fill="#d97b2e"/>
  <rect x="31.1" y="28" width="1.8" height="4" rx="0.9" fill="#c8b69a"/>
  <rect x="24" y="32" width="16" height="24" rx="3" fill="#e9e2d2"/>
  <rect x="24" y="32" width="16" height="5" rx="2.5" fill="#f6f1e4"/>
</svg>
